<svg width="29" height="28" fill="none" xmlns="http://www.w3.org/2000/svg"><path d="M28.118 19.04c0-4.44-3.06-7.12-8.77-7.545V0c-.442.67-1.365 1.755-2.557 3.005v24.747h2.558V26.56c5.732-.375 8.769-3.104 8.769-7.52zm-8.771 3.748v-7.496c2.745.34 4.075 1.509 4.075 3.723s-1.26 3.431-4.075 3.773zM8.735 11.498C3.047 11.976 0 14.608 0 19.038c0 4.408 3.047 7.063 8.735 7.517v1.196h2.556V8.113a37.415 37.415 0 01-2.557 1.928v1.457h.001zm-4.04 7.542c-.001-2.23 1.227-3.376 4.04-3.743v7.46c-2.654-.367-4.04-1.513-4.04-3.717zm8.067 8.712h2.557V4.494a64.768 64.768 0 01-2.557 2.374v20.884z" fill="#FFC93F"/></svg>