<svg width="22" height="20" fill="none" xmlns="http://www.w3.org/2000/svg"><path d="M10.64 9c-.28 0-.548.105-.745.293a.975.975 0 00-.309.707v4c0 .265.111.52.309.707.197.188.465.293.745.293.28 0 .547-.105.745-.293a.975.975 0 00.308-.707v-4a.975.975 0 00-.308-.707A1.083 1.083 0 0010.64 9zm.4-3.92c-.256-.1-.544-.1-.8 0-.13.048-.248.119-.348.21a1.144 1.144 0 00-.221.33.804.804 0 00-.085.38.993.993 0 00.306.71c.102.088.22.16.348.21a1.105 1.105 0 00.984-.093c.144-.09.262-.214.343-.358A.96.96 0 0011.693 6a1.023 1.023 0 00-.305-.71 1.063 1.063 0 00-.348-.21zM10.64 0C8.556 0 6.52.586 4.787 1.685c-1.732 1.1-3.082 2.66-3.88 4.488a9.53 9.53 0 00-.6 5.778 9.854 9.854 0 002.884 5.12 10.72 10.72 0 005.394 2.737c2.043.386 4.161.188 6.086-.57a10.436 10.436 0 004.728-3.682A9.643 9.643 0 0021.174 10a9.561 9.561 0 00-.802-3.827A9.983 9.983 0 0018.09 2.93 10.59 10.59 0 0014.67.76 11.025 11.025 0 0010.64 0zm0 18a8.752 8.752 0 01-4.682-1.348 8.106 8.106 0 01-3.104-3.59 7.624 7.624 0 01-.48-4.623 7.883 7.883 0 012.307-4.096 8.576 8.576 0 014.315-2.19 8.847 8.847 0 014.869.456 8.349 8.349 0 013.782 2.946A7.714 7.714 0 0119.067 10c0 2.122-.888 4.157-2.468 5.657S12.875 18 10.639 18z" fill="#C1C3C8"/></svg>